<?xml version="1.0" standalone="no"?>
<!DOCTYPE svg PUBLIC "-//W3C//DTD SVG 20010904//EN"
 "http://www.w3.org/TR/2001/REC-SVG-20010904/DTD/svg10.dtd">
<svg version="1.0" xmlns="http://www.w3.org/2000/svg"
 width="452.000000pt" height="452.000000pt" viewBox="0 0 452.000000 452.000000"
 preserveAspectRatio="xMidYMid meet">
<metadata>
Created by potrace 1.11, written by Peter Selinger 2001-2013
</metadata>
<g transform="translate(0.000000,452.000000) scale(0.100000,-0.100000)"
fill="#000000" stroke="none">
<path d="M740 2859 c0 -3 -9 -5 -21 -5 -22 1 -39 -24 -103 -149 -19 -38 -50
-96 -69 -127 -19 -31 -32 -59 -29 -62 3 -3 0 -6 -6 -6 -6 0 -16 -17 -23 -37
-7 -21 -23 -52 -35 -69 -13 -17 -29 -45 -35 -62 -6 -18 -15 -32 -21 -32 -6 0
-8 -7 -4 -15 3 -8 -1 -18 -7 -22 -7 -5 -23 -29 -35 -55 -12 -27 -27 -48 -32
-48 -6 0 -9 -3 -8 -7 4 -13 -24 -73 -34 -73 -6 0 -8 -7 -4 -15 3 -8 2 -15 -3
-15 -5 0 -14 -15 -22 -32 -7 -18 -16 -35 -19 -38 -4 -3 -13 -18 -21 -35 -24
-47 -43 -79 -52 -86 -5 -3 -8 -9 -8 -13 3 -19 -1 -27 -21 -46 -12 -11 -18 -20
-14 -20 5 0 1 -11 -8 -25 -9 -14 -13 -25 -9 -25 5 0 3 -4 -2 -8 -19 -13 -46
-62 -40 -72 3 -6 0 -10 -7 -10 -18 -1 23 -24 45 -25 10 -1 20 3 24 8 3 5 9 3
14 -4 8 -12 11 -11 19 1 8 12 10 12 10 1 0 -11 3 -11 15 -1 8 7 15 8 15 3 0
-11 29 -11 47 0 6 4 14 1 16 -5 4 -9 8 -9 14 -3 4 6 15 10 23 10 8 0 14 6 13
13 -2 6 1 12 6 12 5 0 14 14 21 30 7 17 17 30 22 30 5 0 6 5 2 11 -3 6 9 32
27 57 19 26 33 49 32 52 -2 9 36 78 47 85 6 4 8 11 5 16 -4 5 -2 9 3 9 6 0 13
12 17 28 3 15 16 37 27 50 12 12 19 22 15 22 -3 0 16 38 43 85 27 47 47 85 44
85 -2 0 7 18 21 40 14 22 25 44 25 49 0 5 5 11 11 13 5 2 11 12 13 21 1 10 8
22 15 26 7 5 12 11 12 15 -3 17 0 26 12 38 13 14 34 57 35 72 0 5 5 12 10 15
5 3 24 35 42 71 18 36 38 72 45 80 7 8 16 26 20 39 4 14 16 33 26 44 10 11 16
24 13 29 -3 4 0 8 6 8 6 0 9 4 6 9 -4 5 -2 11 4 13 5 1 13 18 16 37 7 31 6 33
-13 22 -11 -5 -23 -8 -26 -5 -7 8 -167 11 -167 3z"/>
<path d="M1420 2863 c0 -4 -26 -7 -57 -5 l-58 3 -35 -63 c-19 -35 -33 -66 -32
-70 1 -5 -3 -8 -9 -8 -5 0 -7 -4 -4 -10 3 -5 2 -10 -3 -10 -5 0 -26 -35 -47
-77 -21 -43 -45 -86 -53 -95 -8 -10 -11 -18 -6 -18 5 0 5 -4 -1 -8 -5 -4 -22
-29 -36 -57 -50 -96 -64 -120 -74 -127 -5 -4 -6 -8 -2 -8 5 0 -1 -13 -13 -30
-12 -16 -18 -30 -15 -30 4 0 -1 -7 -9 -16 -9 -8 -14 -20 -11 -25 4 -5 2 -9 -2
-9 -10 0 -69 -111 -65 -122 1 -5 -2 -8 -7 -8 -5 0 -20 -22 -32 -50 -12 -27
-27 -50 -31 -50 -5 0 -7 -4 -3 -10 3 -5 -2 -18 -12 -28 -10 -10 -20 -27 -21
-37 -2 -11 -7 -22 -12 -25 -7 -5 -34 -50 -35 -60 0 -3 -9 -17 -19 -32 -9 -15
-18 -33 -20 -40 -1 -8 -11 -28 -23 -44 -13 -17 -20 -34 -16 -38 3 -3 0 -6 -7
-6 -10 0 -11 -3 -3 -11 15 -15 253 -18 253 -3 0 7 7 15 16 18 8 3 13 10 10 15
-4 5 2 17 11 27 10 10 18 20 17 23 -1 11 20 61 27 61 3 0 14 19 25 43 10 23
21 44 24 47 9 8 34 64 32 73 -1 4 2 7 6 7 7 0 32 41 37 60 0 3 11 21 23 40 12
19 25 45 28 58 4 12 10 22 15 22 5 0 9 5 9 11 0 7 10 28 22 48 13 20 23 39 23
43 0 4 7 15 15 25 8 10 24 38 34 63 11 25 24 50 30 55 6 6 12 17 14 25 2 8 9
18 15 22 7 4 8 8 4 8 -5 0 1 14 13 30 12 17 18 30 13 30 -4 0 -3 4 3 8 6 4 18
22 27 40 9 17 24 47 34 65 9 17 24 43 33 57 18 25 20 31 20 51 0 5 5 7 10 4 6
-3 10 1 10 10 0 15 15 46 36 75 6 8 14 25 16 37 5 19 1 22 -43 25 -27 1 -49
-1 -49 -5 0 -4 -9 -3 -20 3 -11 6 -20 7 -20 3z"/>
<path d="M2540 2863 c0 -4 -40 -7 -90 -5 -59 2 -90 0 -90 -7 0 -19 -4 -25 -27
-49 -13 -13 -23 -29 -23 -37 0 -8 -4 -15 -10 -15 -5 0 -10 -7 -10 -15 0 -8 -4
-15 -10 -15 -5 0 -10 -6 -10 -13 0 -7 -8 -22 -18 -33 -10 -10 -19 -23 -20 -29
-2 -5 -11 -20 -22 -32 -10 -12 -16 -24 -13 -27 4 -3 2 -6 -4 -6 -6 0 -16 -13
-23 -30 -7 -16 -17 -30 -22 -30 -5 0 -6 -5 -3 -10 3 -6 -1 -13 -9 -16 -9 -3
-16 -15 -16 -25 0 -10 -4 -19 -10 -19 -5 0 -17 -16 -26 -35 -9 -19 -20 -35
-25 -35 -5 0 -9 -5 -9 -10 0 -6 -8 -23 -18 -38 -10 -15 -33 -48 -50 -74 -18
-25 -32 -51 -32 -57 0 -6 -4 -11 -9 -11 -5 0 -19 -19 -31 -42 -12 -24 -31 -53
-43 -65 -11 -13 -17 -23 -13 -23 6 0 1 -8 -34 -49 -8 -10 -16 -24 -18 -32 -2
-8 -8 -15 -13 -17 -5 -2 -9 -8 -9 -13 0 -5 -16 -31 -36 -59 -20 -27 -33 -50
-30 -50 7 0 -4 -15 -37 -51 -9 -10 -14 -19 -10 -19 3 0 -1 -8 -10 -18 -10 -10
-14 -22 -10 -25 3 -4 -2 -7 -12 -7 -10 0 -16 -3 -13 -6 4 -3 -5 -22 -18 -41
-13 -20 -22 -38 -20 -40 3 -4 177 -6 277 -4 18 1 30 10 40 29 7 15 35 59 61
98 26 40 44 74 41 78 -4 3 -2 6 4 6 5 0 15 12 22 26 11 24 15 26 76 22 39 -2
65 1 65 7 0 7 3 7 8 0 4 -6 55 -10 117 -10 62 0 113 4 117 10 5 7 8 7 8 0 0
-6 36 -9 95 -7 l95 3 11 -28 c6 -15 11 -37 12 -48 0 -11 5 -26 11 -34 9 -12 8
-13 -4 -6 -13 8 -13 7 -1 -8 7 -9 10 -17 6 -17 -4 0 -3 -6 2 -12 6 -7 9 -21 8
-30 -2 -10 0 -18 5 -18 4 0 7 -12 6 -27 -1 -23 4 -28 31 -34 18 -3 36 -2 42 4
8 8 11 8 11 1 0 -12 29 -12 47 -1 6 4 14 1 16 -5 4 -10 8 -9 16 2 8 12 11 12
11 1 0 -11 3 -11 15 -1 8 7 15 9 15 4 0 -8 53 -10 70 -4 3 1 8 2 13 1 10 -1 9
13 -2 42 -5 13 -12 37 -15 53 -6 38 -11 57 -30 130 -8 33 -18 71 -20 85 -2 13
-5 24 -6 24 -1 0 -3 7 -5 15 -2 8 -7 26 -10 40 -4 14 -7 35 -8 48 -1 12 -5 22
-10 22 -4 0 -5 5 -2 10 3 6 0 10 -7 10 -9 0 -9 3 2 10 8 5 10 10 4 10 -8 0
-34 93 -40 145 0 6 -4 17 -7 25 -10 23 -28 102 -30 130 -1 14 -5 27 -9 30 -3
3 -8 23 -10 45 -2 22 -8 46 -15 52 -6 7 -9 22 -6 33 3 12 0 20 -8 20 -7 0 -10
2 -7 6 3 3 2 22 -3 42 -17 67 -21 87 -22 100 0 6 -4 12 -8 12 -4 0 -6 9 -4 20
2 11 0 20 -5 20 -4 0 -6 9 -3 20 5 19 3 20 -69 35 -10 2 -18 -1 -18 -6 0 -6
-8 -5 -20 1 -11 6 -20 7 -20 3z m-65 -341 c-1 -9 1 -19 5 -22 4 -3 10 -23 13
-45 7 -51 22 -109 32 -125 6 -9 4 -11 -6 -5 -11 7 -12 6 -3 -6 6 -8 17 -47 24
-87 7 -40 17 -75 21 -77 4 -3 2 -15 -3 -28 -11 -22 -13 -22 -192 -19 -99 2
-183 5 -185 8 -2 2 3 12 12 22 10 10 14 22 10 25 -3 4 -2 7 4 7 6 0 16 14 23
30 7 17 16 30 21 30 5 0 9 7 9 15 0 8 5 15 10 15 5 0 9 4 7 8 -1 5 14 33 33
63 19 30 34 57 32 62 -1 4 2 7 7 7 5 0 14 14 21 30 7 17 17 30 23 30 6 0 8 3
4 6 -3 4 4 21 17 38 13 17 26 40 30 51 7 19 8 19 21 2 7 -10 12 -26 10 -35z"/>
<path d="M3380 2859 c0 -3 -10 -5 -22 -5 -13 1 -22 -4 -20 -11 1 -7 -2 -13 -7
-13 -4 0 -7 -10 -7 -22 1 -13 -1 -30 -5 -39 -5 -9 -11 -38 -15 -65 -3 -27 -11
-55 -16 -61 -7 -9 -6 -13 3 -13 9 0 10 -3 4 -8 -6 -4 -10 -16 -10 -27 0 -11
-3 -24 -6 -30 -4 -5 -10 -30 -14 -55 -3 -25 -11 -63 -16 -85 -10 -41 -12 -52
-24 -120 -4 -22 -10 -44 -14 -50 -4 -5 -6 -22 -5 -37 2 -15 -2 -30 -7 -34 -6
-4 -6 -11 2 -20 6 -8 7 -14 2 -14 -5 0 -10 -6 -11 -12 0 -7 -3 -24 -7 -38 -10
-41 -17 -74 -20 -95 -1 -11 -4 -20 -5 -20 -1 0 -3 -13 -5 -30 -1 -16 -3 -30
-5 -30 -1 0 -3 -9 -5 -20 -3 -11 -7 -33 -10 -50 -11 -59 -17 -90 -18 -112 -1
-13 -5 -23 -9 -23 -3 0 -5 -8 -3 -17 1 -10 0 -22 -4 -28 -18 -32 -11 -45 27
-46 211 -3 482 0 491 5 6 4 11 3 11 -2 0 -10 30 -9 47 1 6 4 14 1 16 -5 4 -10
8 -9 16 2 8 12 11 12 11 1 0 -11 3 -11 15 -1 8 7 15 8 15 3 0 -11 29 -11 48 1
6 4 12 3 12 -3 0 -6 13 -6 36 1 20 5 38 7 42 4 3 -3 10 -2 16 3 6 4 34 14 61
21 28 8 61 20 75 27 14 7 31 13 38 13 6 0 12 5 12 10 0 6 9 10 20 10 11 0 20
5 20 11 0 5 5 7 10 4 6 -3 10 -1 10 4 0 6 4 11 10 11 19 0 170 141 170 160 0
5 5 10 10 10 6 0 10 4 10 10 0 5 14 31 30 57 17 26 28 53 26 59 -3 7 2 15 10
18 8 3 14 9 13 13 -1 4 0 10 1 13 5 15 21 88 24 115 1 12 5 25 8 30 19 33 -11
305 -34 305 -4 0 -7 3 -6 8 4 14 -13 52 -23 52 -6 0 -8 4 -4 9 3 5 1 12 -5 16
-6 4 -8 11 -5 16 4 5 -1 9 -10 9 -8 0 -18 8 -22 18 -8 22 -44 62 -56 62 -5 0
-20 12 -33 26 -13 14 -29 22 -34 19 -6 -3 -10 -2 -10 3 0 5 -10 13 -22 17 -13
4 -25 8 -28 9 -3 1 -14 7 -25 13 -11 6 -24 12 -30 13 -5 2 -14 4 -20 6 -43 13
-155 30 -155 22 0 -5 -9 -4 -20 2 -11 6 -20 7 -20 3 0 -4 -45 -6 -100 -3 -55
3 -100 1 -100 -3 0 -4 -9 -3 -20 3 -11 6 -20 7 -20 3 0 -4 -63 -6 -140 -3 -77
3 -140 2 -140 -1z m501 -239 c10 -6 19 -7 19 -2 0 13 102 -15 112 -30 4 -7 8
-10 8 -5 0 13 53 -19 82 -50 32 -34 72 -118 63 -133 -3 -5 -2 -10 3 -10 6 0 9
-29 8 -65 0 -36 -3 -65 -7 -65 -3 0 -4 -13 -3 -30 1 -16 -2 -30 -7 -30 -5 0
-8 -3 -7 -7 4 -13 -26 -103 -34 -103 -3 0 -10 -10 -14 -22 -7 -24 -129 -148
-145 -148 -16 0 -24 -3 -37 -17 -8 -7 -18 -11 -23 -8 -5 4 -9 1 -9 -5 0 -6 -4
-8 -10 -5 -5 3 -10 1 -10 -5 0 -6 -4 -9 -9 -5 -6 3 -29 1 -53 -4 -65 -15 -118
-20 -118 -10 0 5 -10 5 -23 0 -14 -5 -30 -5 -40 0 -9 6 -17 6 -17 2 0 -4 -36
-8 -80 -8 -44 0 -80 3 -80 8 0 4 -6 6 -12 5 -7 -2 -11 4 -9 12 2 8 5 22 6 30
2 8 4 15 5 15 1 0 4 20 6 45 3 25 10 50 16 57 8 10 7 13 -3 13 -9 0 -10 3 -3
8 8 6 33 114 59 257 2 11 6 31 9 45 3 14 8 45 11 70 3 24 9 47 13 50 4 3 8 16
10 30 2 24 8 60 14 90 8 38 17 40 154 40 75 0 144 -5 155 -10z"/>
</g>
</svg>
